<svg id="Layer_1" data-name="Layer 1" xmlns="http://www.w3.org/2000/svg" viewBox="0 0 489.18 398.01"><defs><style>.cls-1{fill:#ed1c24;}</style></defs><path class="cls-1" d="M166.27,373.63c.94,11.17-1.85,21.71-6,31.94-5.73,14.25-13.79,27.14-23.13,39.28A156.93,156.93,0,0,1,116.83,467a57.92,57.92,0,0,1-14.94,10,24.05,24.05,0,0,1-14.78,2A18.43,18.43,0,0,1,75.26,471a29.17,29.17,0,0,1-4.63-14.5,77.4,77.4,0,0,1,1.17-19.1c2.85-16.72,6.71-33.23,11.2-49.58,2.56-9.31,5.43-18.54,8.28-27.77a45.14,45.14,0,0,1,3-7.17,6.43,6.43,0,0,1,2.45-2.46,4.4,4.4,0,0,1,5.41,1.34,10.35,10.35,0,0,1,2.37,5.45c.44,3.23.68,6.49,1,9.74C105,374,104.1,381,103,388c-2.08,13.45-4.9,26.76-7.77,40.06q-2.7,12.52-5.12,25.12a35.18,35.18,0,0,0-.38,6,10.59,10.59,0,0,0,.39,2.85c.49,1.81,1.53,2.76,3.37,2.65a15.55,15.55,0,0,0,4.95-1.06c4.41-1.79,8-4.84,11.35-8.13a110.36,110.36,0,0,0,15.82-20.13c7.42-11.64,13.82-23.78,18-37a62.2,62.2,0,0,0,3-15.06c1-17.17-8.88-31.39-25.47-36.11a62,62,0,0,0-43.36,3c-3.32,1.48-6.55,3.17-9.78,4.85-2.51,1.3-4.87.9-6-1.16a4.34,4.34,0,0,1,1-5.47A77.82,77.82,0,0,1,69.19,343c8.47-6.39,17.42-12.05,27.66-15.1,13.53-4,27.07-3.42,39.87,2.55,18.22,8.49,27.88,23.24,29.55,43.21Z" transform="translate(-61.41 -81.44)"/><path class="cls-1" d="M272.78,401.11c.87,1.22.83,2.79-.2,4.56a34.75,34.75,0,0,1-2.12,3.24c-5.68,7.59-11.55,14.88-19,19.15-6.65,3.81-13.45,4.93-20.24,2.56-7.54-2.64-12-9.17-13.55-19.29-.17-1.14-.32-2.29-.5-3.43,0-.08-.09-.15-.28-.44l-2.45,2c-6.53,5.39-13,10.88-19.63,16.13a37.7,37.7,0,0,1-11.56,6.57c-2.85.93-5.66,1.17-8.28-.58-4.22-2.82-6.1-9.21-4.81-16.24a40.54,40.54,0,0,1,4.71-13.07c7.65-13.22,17.51-21.42,29.73-23.81a18.6,18.6,0,0,1,7.32.23c4.63,1,8,4.17,8.77,10.52.16.18.21.28.27.29,4.64.72,6.8,4.6,7.55,10.3.24,1.82.44,3.66.67,5.48.71,5.65,3.26,8.89,7.53,9.66a21.45,21.45,0,0,0,5.55.3c8.51-.76,16.35-4.71,23.65-11.07,1.15-1,2.28-2.09,3.44-3.09,1.44-1.22,2.6-1.2,3.47,0Zm-59.71-8.45c-7.2-3.12-25.55,10.1-29.62,23.15C193.92,409.12,203,400,213.07,392.66Z" transform="translate(-61.41 -81.44)"/><path class="cls-1" d="M332.13,385.57a23,23,0,0,1,1.11,12.95c-2.49,13.92-9,25.58-20,34.58A29.28,29.28,0,0,1,297.52,440c-7,.72-12.06-1.87-15.52-8.07l-.66-1.16a11.85,11.85,0,0,0-1,1.13,37.44,37.44,0,0,1-2.38,3.77,16.18,16.18,0,0,1-3.67,3.49,6.32,6.32,0,0,1-9.1-2.7,15,15,0,0,1-1.47-6.48,83,83,0,0,1,1.22-16.66c3.76-23,11.14-44.84,20.79-66a107.86,107.86,0,0,1,14.85-24.56,58.63,58.63,0,0,1,6.44-6.46,14.07,14.07,0,0,1,7.45-3.31,11,11,0,0,1,12,6.52A21.91,21.91,0,0,1,328.23,330a49.3,49.3,0,0,1-2.13,11.61,63.77,63.77,0,0,1-13.49,25.13c-5.6,6.29-11.6,12.16-17.68,18-3.61,3.44-7.21,6.89-10.86,10.28a11.78,11.78,0,0,0-3.67,6.71c-.65,3.57-1.53,7.1-2.32,10.65l.47.3c.72-1.11,1.44-2.21,2.15-3.32a110.78,110.78,0,0,1,17.66-21.78,47.12,47.12,0,0,1,12.38-8.64,20.9,20.9,0,0,1,8.18-2c6.24-.17,10.86,2.87,13.21,8.67Zm-13.74,3.61a36.46,36.46,0,0,0-3.95,1.22,31.32,31.32,0,0,0-7.93,5.32c-7.58,6.63-13.3,14.77-18.64,23.21-1.61,2.55-1.47,3.16.53,5.4a3.3,3.3,0,0,0,3.39,1.17,20.61,20.61,0,0,0,3.19-1,32.14,32.14,0,0,0,10.76-7.78,50.51,50.51,0,0,0,12.37-21.4A10.91,10.91,0,0,0,318.39,389.18Zm-30.42-12c-.14.39-.23.81-.37,1.33a2.76,2.76,0,0,0,.59-.24c.42-.42.83-.85,1.22-1.3a174.88,174.88,0,0,0,19.64-27.28,43,43,0,0,0,5.33-19.38,8.59,8.59,0,0,0-.31-1.73,18.82,18.82,0,0,0-1.95,1.92c-2.57,3.46-5.32,6.8-7.58,10.45-7,11.37-12.08,23.68-16.57,36.23Z" transform="translate(-61.41 -81.44)"/><path class="cls-1" d="M407.62,385.57a23,23,0,0,1,1.11,12.95,56.12,56.12,0,0,1-20,34.58A29.25,29.25,0,0,1,373,440c-7,.72-12.06-1.87-15.52-8.07-.18-.32-.37-.64-.66-1.16a10.61,10.61,0,0,0-1,1.13,39.32,39.32,0,0,1-2.38,3.77,16,16,0,0,1-3.68,3.49,6.32,6.32,0,0,1-9.1-2.7A15.12,15.12,0,0,1,339.2,430a83.78,83.78,0,0,1,1.21-16.66c3.77-23,11.15-44.84,20.8-66,4-8.74,8.66-17.14,14.85-24.56a58.63,58.63,0,0,1,6.44-6.46,14,14,0,0,1,7.45-3.31,11,11,0,0,1,12,6.52A21.79,21.79,0,0,1,403.72,330a49.3,49.3,0,0,1-2.13,11.61,63.9,63.9,0,0,1-13.49,25.13c-5.61,6.29-11.61,12.16-17.69,18-3.6,3.44-7.2,6.89-10.85,10.28a11.66,11.66,0,0,0-3.67,6.71c-.65,3.57-1.54,7.1-2.32,10.65l.47.3c.72-1.11,1.44-2.21,2.15-3.32a111.09,111.09,0,0,1,17.65-21.78,47.33,47.33,0,0,1,12.39-8.64,20.89,20.89,0,0,1,8.17-2c6.25-.17,10.86,2.87,13.22,8.67Zm-13.74,3.61a36.46,36.46,0,0,0-3.95,1.22,31.14,31.14,0,0,0-7.93,5.32c-7.59,6.63-13.3,14.77-18.64,23.21-1.61,2.55-1.48,3.16.53,5.4a3.29,3.29,0,0,0,3.39,1.17,21,21,0,0,0,3.19-1,32.24,32.24,0,0,0,10.76-7.78,50.61,50.61,0,0,0,12.37-21.4A10.91,10.91,0,0,0,393.88,389.18Zm-30.79-10.66c.32-.13.49-.15.58-.24.42-.42.84-.85,1.22-1.3a175.6,175.6,0,0,0,19.65-27.28,43,43,0,0,0,5.33-19.38,9.38,9.38,0,0,0-.31-1.73,18.82,18.82,0,0,0-1.95,1.92C385,334,382.28,337.31,380,341c-7,11.37-12.08,23.68-16.56,36.23C363.31,377.58,363.23,378,363.09,378.52Z" transform="translate(-61.41 -81.44)"/><path class="cls-1" d="M484.81,400.76a11.66,11.66,0,0,1-1,6.68c-3.07,7.47-7.21,14.13-13.19,19.39S458,436,450.34,437.69s-15.28,1-22-3.86c-6.92-4.95-10.65-12.14-12.41-20.6-1.88-9.07-1-18.05,1.09-26.94a126,126,0,0,1,9.85-26.58,196.91,196.91,0,0,1,17.35-29.18,62.75,62.75,0,0,1,12.15-12.47,27.37,27.37,0,0,1,13-5.37c5.65-.87,10.74,2.33,12.76,8,2.44,6.9,1.67,13.64-1.13,20.23a72.1,72.1,0,0,1-11.69,18.36c-6.55,7.74-13.9,14.47-22.6,19.42A44.22,44.22,0,0,1,434,383.8c-.51.11-1,.28-1.61.45-2.43,7.84-4.28,15.75-3,24.12a19.67,19.67,0,0,0,2.82,7.9,10.45,10.45,0,0,0,9,5.17,26.31,26.31,0,0,0,10.44-2.16,68.39,68.39,0,0,0,18.23-10.81c3.65-3,7.19-6.11,10.79-9.17.63-.54,1.29-1,1.9-1.54a3.33,3.33,0,0,1,2.32,3ZM465.6,326.87c-12.1,13.66-21.25,28.76-28.71,45.07l.42.39c.41-.32.84-.62,1.24-.95a100.57,100.57,0,0,0,21.53-24.68,41.69,41.69,0,0,0,5.41-12.11,18.23,18.23,0,0,0,.11-7.72Z" transform="translate(-61.41 -81.44)"/><path class="cls-1" d="M550,403.32a25.69,25.69,0,0,1-2.64,4.17c-6.39,7.89-19.8,18.89-29,24.26A67.09,67.09,0,0,1,504.06,438a41,41,0,0,1-12.24,1.83c-10.92-.08-18.69-6.39-19.39-15.7A29.59,29.59,0,0,1,475,409.92a62.73,62.73,0,0,1,23.69-27.58,31.24,31.24,0,0,1,15-5c4.3-.32,8.26.6,11.23,3.57,4.17,4.17,5.39,8.83,3.08,14a27.17,27.17,0,0,1-9.22,11.45c-6,4.31-13.06,6.43-20.53,7.85-3.11.59-6.23,1.15-9.46,1.75,0,0-2,3.89,1,8.61,1.47,2.28,4.83,2.85,7.43,2.74,6-.27,12.41-3.77,17.64-6.42,7-3.57,18.87-12.39,25.31-16.7,1.93-1.3,3.92-2.52,5.94-3.71,1.1-.65,2.42-1.32,3.7-.49S550.55,402.23,550,403.32ZM494.39,403c-.05.07.05.22.14.52,1.56-.76,3.09-1.48,4.58-2.25a44.32,44.32,0,0,0,11-7.37,12.09,12.09,0,0,0,3.68-5.94,11,11,0,0,0-5.69,1.57c-6.24,3.24-10.14,8.22-13.68,13.47Z" transform="translate(-61.41 -81.44)"/><path class="cls-1" d="M111.39,106.39a21.43,21.43,0,0,1-1.84,9.86,51.58,51.58,0,0,1-7.14,12.13,49,49,0,0,1-6.28,6.83,18,18,0,0,1-4.62,3.1,7.45,7.45,0,0,1-4.56.62,5.71,5.71,0,0,1-3.66-2.5A8.94,8.94,0,0,1,81.87,132a23.81,23.81,0,0,1,.35-5.9c.88-5.16,2.08-10.25,3.46-15.3.79-2.88,1.68-5.73,2.56-8.58a14.81,14.81,0,0,1,.94-2.21,2.05,2.05,0,0,1,.76-.76,1.37,1.37,0,0,1,1.67.41,3.25,3.25,0,0,1,.73,1.69c.13,1,.21,2,.31,3-.18,2.19-.45,4.35-.79,6.51-.64,4.16-1.51,8.26-2.39,12.37-.56,2.58-1.08,5.16-1.59,7.75a11.54,11.54,0,0,0-.11,1.86,3,3,0,0,0,.12.88,1,1,0,0,0,1,.82,4.92,4.92,0,0,0,1.52-.33A11.23,11.23,0,0,0,94,131.66a34.15,34.15,0,0,0,4.88-6.22A48.5,48.5,0,0,0,104.4,114a19.3,19.3,0,0,0,.93-4.64,10.57,10.57,0,0,0-7.87-11.15,19.13,19.13,0,0,0-13.38.93c-1,.46-2,1-3,1.5a1.31,1.31,0,0,1-1.87-.36,1.33,1.33,0,0,1,.32-1.69,23.41,23.41,0,0,1,1.91-1.68A27,27,0,0,1,90,92.27a17,17,0,0,1,12.31.78c5.62,2.62,8.6,7.18,9.12,13.34Z" transform="translate(-61.41 -81.44)"/><path class="cls-1" d="M95.23,149.09a33.83,33.83,0,1,1,33.83-33.82A33.86,33.86,0,0,1,95.23,149.09Zm0-64.65a30.83,30.83,0,1,0,30.83,30.83A30.86,30.86,0,0,0,95.23,84.44Z" transform="translate(-61.41 -81.44)"/></svg>