<svg id="Layer_1" data-name="Layer 1" xmlns="http://www.w3.org/2000/svg" viewBox="0 0 605.3 163.42"><defs><style>.cls-1,.cls-3,.cls-6,.cls-7{fill:none;}.cls-1,.cls-3,.cls-7{stroke:#231f20;}.cls-1,.cls-3{stroke-miterlimit:10;stroke-width:0.75px;}.cls-2{fill:#231f20;}.cls-3,.cls-6,.cls-7{stroke-linecap:round;}.cls-4{fill:#ef4736;}.cls-5{fill:#fff;}.cls-6{stroke:#ef4736;}.cls-6,.cls-7{stroke-linejoin:round;}</style></defs><path class="cls-1" d="M127,190c4.13-2.38,11.35-7.27,15.06-9.79,1-.64,1.61-1.08,6.22.94,3.94,1.73-.52,3.71-4.9,6.55-2.59,1.68-4.77,3.12-4.77,3.12l3.62,9s2,4.43-3.14,6-6.64,2.13-6.64,2.13a8.59,8.59,0,0,1-10.32-5.11c-2.69-5.89-2.48-6.34-3.9-9.31-3.14-6.59-8.34-6.69-8.51-7.88s4.26-3.49,8.09-1.78,4,3.66,5.28,5.53S124.17,191.61,127,190Z" transform="translate(-25.72 -45.28)"/><path class="cls-2" d="M126.91,181.6a.5.5,0,0,1-.5-.5v-5.49a.51.51,0,0,1,.5-.5.5.5,0,0,1,.5.5v5.49A.5.5,0,0,1,126.91,181.6Z" transform="translate(-25.72 -45.28)"/><path class="cls-2" d="M123.24,183.42a.51.51,0,0,1-.37-.17l-4.34-4.88a.5.5,0,1,1,.75-.66l4.34,4.88a.49.49,0,0,1-.05.7A.46.46,0,0,1,123.24,183.42Z" transform="translate(-25.72 -45.28)"/><path class="cls-2" d="M130.78,183.42a.5.5,0,0,1-.38-.83l4.34-4.88a.51.51,0,0,1,.71-.05.51.51,0,0,1,0,.71l-4.34,4.88A.51.51,0,0,1,130.78,183.42Z" transform="translate(-25.72 -45.28)"/><line class="cls-3" x1="112.89" y1="145.52" x2="107.22" y2="149.15"/><line class="cls-3" x1="114.63" y1="149.88" x2="109.38" y2="153.04"/><line class="cls-3" x1="116.25" y1="154.14" x2="112.89" y2="155.85"/><path class="cls-4" d="M81.19,208.68c-2.45,0-6.16-.88-8.32-5.61-1.5-3.29-2.1-4.89-2.58-6.18A33.69,33.69,0,0,0,69,193.76a13,13,0,0,0-6.87-6.65c-1-.45-1.59-.75-1.67-1.33s.23-.95.86-1.43a8.26,8.26,0,0,1,7.75-.76A8.47,8.47,0,0,1,73.73,188a12.74,12.74,0,0,0,.75,1.29l.31.45c.83,1.26.83,1.26,3.11-.06h0c3.78-2.18,10-6.37,15-9.77,1.13-.77,2-1.1,6.57.9,1.13.5,1.7,1.07,1.75,1.74.09,1.34-1.87,2.55-4.58,4.22-.65.4-1.33.82-2,1.26-2.06,1.33-3.86,2.52-4.51,2.94l3.51,8.77a4.66,4.66,0,0,1-3.39,6.54c-5.09,1.62-6.63,2.13-6.63,2.13A9.44,9.44,0,0,1,81.19,208.68ZM66,183.71A7.41,7.41,0,0,0,61.75,185c-.48.37-.58.63-.57.72s.71.5,1.25.76a13.71,13.71,0,0,1,7.23,7c.63,1.34.94,2.16,1.33,3.2.48,1.27,1.07,2.86,2.57,6.13a8.11,8.11,0,0,0,9.86,4.9s1.54-.51,6.64-2.12A3.94,3.94,0,0,0,93,200l-3.74-9.35.25-.17s2.18-1.43,4.78-3.11c.68-.45,1.36-.87,2-1.27,2.11-1.3,4.29-2.64,4.23-3.53,0-.45-.72-.85-1.3-1.1-4.42-1.94-5-1.55-5.85-1-5,3.41-11.28,7.61-15.09,9.8h0c-2.67,1.55-3,1.53-4.11-.17l-.3-.45a14.73,14.73,0,0,1-.79-1.35,7.72,7.72,0,0,0-4.33-4.05A6.76,6.76,0,0,0,66,183.71Z" transform="translate(-25.72 -45.28)"/><path class="cls-4" d="M78,181.6a.5.5,0,0,1-.5-.5v-5.49a.5.5,0,0,1,1,0v5.49A.5.5,0,0,1,78,181.6Z" transform="translate(-25.72 -45.28)"/><path class="cls-4" d="M74.33,183.42a.48.48,0,0,1-.37-.17l-4.35-4.88a.51.51,0,0,1,0-.71.49.49,0,0,1,.7.05l4.34,4.88a.48.48,0,0,1,0,.7A.46.46,0,0,1,74.33,183.42Z" transform="translate(-25.72 -45.28)"/><path class="cls-4" d="M81.86,183.42a.46.46,0,0,1-.33-.13.48.48,0,0,1,0-.7l4.34-4.88a.5.5,0,1,1,.74.66l-4.34,4.88A.48.48,0,0,1,81.86,183.42Z" transform="translate(-25.72 -45.28)"/><path class="cls-4" d="M84,194.8a.37.37,0,0,1-.31-.17.36.36,0,0,1,.11-.52l5.67-3.63a.38.38,0,0,1,.52.11.37.37,0,0,1-.12.52l-5.67,3.63A.36.36,0,0,1,84,194.8Z" transform="translate(-25.72 -45.28)"/><path class="cls-4" d="M86.19,198.69a.37.37,0,0,1-.32-.18A.37.37,0,0,1,86,198l5.25-3.17a.37.37,0,0,1,.51.13.38.38,0,0,1-.12.52l-5.25,3.16A.35.35,0,0,1,86.19,198.69Z" transform="translate(-25.72 -45.28)"/><path class="cls-4" d="M89.7,201.5a.35.35,0,0,1-.33-.2.37.37,0,0,1,.16-.51l3.36-1.71a.37.37,0,0,1,.5.17.37.37,0,0,1-.16.5l-3.36,1.71A.33.33,0,0,1,89.7,201.5Z" transform="translate(-25.72 -45.28)"/><path class="cls-4" d="M177.15,189.06c4.12-2.39,11.34-7.27,15.06-9.79.95-.65,1.61-1.08,6.21.94,4,1.73-.51,3.71-4.89,6.55-2.6,1.68-4.77,3.12-4.77,3.12l3.62,9.05s2,4.43-3.15,6-6.64,2.13-6.64,2.13A8.59,8.59,0,0,1,172.27,202c-2.68-5.89-2.47-6.34-3.89-9.32-3.14-6.58-8.34-6.68-8.51-7.87s4.26-3.49,8.09-1.78,4,3.65,5.27,5.53S174.31,190.69,177.15,189.06Z" transform="translate(-25.72 -45.28)"/><path class="cls-5" d="M177.06,180.68a.5.5,0,0,1-.5-.5v-5.49a.5.5,0,0,1,1,0v5.49A.5.5,0,0,1,177.06,180.68Z" transform="translate(-25.72 -45.28)"/><path class="cls-5" d="M173.39,182.5a.48.48,0,0,1-.37-.17l-4.34-4.88a.5.5,0,0,1,0-.71.5.5,0,0,1,.7,0l4.34,4.89a.48.48,0,0,1,0,.7A.46.46,0,0,1,173.39,182.5Z" transform="translate(-25.72 -45.28)"/><path class="cls-5" d="M180.92,182.5a.46.46,0,0,1-.33-.13.48.48,0,0,1,0-.7l4.34-4.89a.5.5,0,0,1,.75.67l-4.34,4.88A.52.52,0,0,1,180.92,182.5Z" transform="translate(-25.72 -45.28)"/><path class="cls-5" d="M183.28,194.18A.36.36,0,0,1,183,194a.37.37,0,0,1,.11-.51l5.67-3.63a2.34,2.34,0,0,1,.28.66l-5.54,3.6A.42.42,0,0,1,183.28,194.18Z" transform="translate(-25.72 -45.28)"/><path class="cls-5" d="M185.25,197.77a.37.37,0,0,1-.32-.18.37.37,0,0,1,.13-.51l5.3-3.2.28.71-5.19,3.13A.35.35,0,0,1,185.25,197.77Z" transform="translate(-25.72 -45.28)"/><path class="cls-5" d="M188.79,200.39a.37.37,0,0,1-.17-.71l3.4-1.74.22.74L189,200.35A.38.38,0,0,1,188.79,200.39Z" transform="translate(-25.72 -45.28)"/><path class="cls-2" d="M130.58,115.82c-4.23,0-6.38-1.54-6.47-1.61l-.32-.23.15-.36h0a3.54,3.54,0,0,0-.34-2.06c-.44-1.13-2.19-2.7-4.83-5.08l-2-1.83c-4.27-3.9-5.51-10.3-3.18-16.31,2.09-5.39,7.72-11.16,17.22-11.16S146,83,148.09,88.34c2.33,6,1.08,12.41-3.18,16.31l-2,1.83c-2.64,2.38-4.39,4-4.83,5.08a3.46,3.46,0,0,0-.34,2.07l.13.36-.32.23c-.09.07-2.32,1.54-6.69,1.6ZM125,113.57a11.63,11.63,0,0,0,5.86,1.25,13.38,13.38,0,0,0,5.88-1.27,5.08,5.08,0,0,1,.43-2.35c.53-1.36,2.24-2.9,5.09-5.46l2-1.83c3.95-3.62,5.1-9.59,2.92-15.2-2.56-6.59-8.65-10.53-16.29-10.53s-13.81,3.94-16.37,10.53c-2.18,5.61-1,11.58,2.92,15.2l2,1.83c2.84,2.56,4.56,4.1,5.09,5.46A5.17,5.17,0,0,1,125,113.57Z" transform="translate(-25.72 -45.28)"/><path class="cls-2" d="M130.37,128a5.69,5.69,0,0,1-4.27-1.73c-3.14-3.26-2.5-10-2.47-10.24l.06-.66.62.25a19.32,19.32,0,0,0,13.08,0l.58-.22.1.61c0,.23,1,5.86-1.82,9.34a7.11,7.11,0,0,1-5.39,2.6Zm-5.79-11.22c-.07,1.72,0,6.42,2.24,8.8a4.85,4.85,0,0,0,4,1.41,6.16,6.16,0,0,0,4.67-2.22c2-2.5,1.83-6.45,1.69-8A20.15,20.15,0,0,1,124.58,116.79Z" transform="translate(-25.72 -45.28)"/><path class="cls-2" d="M133.36,110.48a.51.51,0,0,1-.5-.46c-1.1-13.13,7.59-16.25,7.68-16.28a.5.5,0,0,1,.32,1c-.32.11-8,2.93-7,15.25a.51.51,0,0,1-.46.54Z" transform="translate(-25.72 -45.28)"/><path class="cls-2" d="M128,112h0a.5.5,0,0,1-.48-.52c.43-12.33-5.56-14.81-5.62-14.84a.5.5,0,0,1-.28-.64.49.49,0,0,1,.64-.29c.28.1,6.71,2.7,6.26,15.8A.51.51,0,0,1,128,112Z" transform="translate(-25.72 -45.28)"/><path class="cls-2" d="M132.05,96.75a2.15,2.15,0,0,1-1.49-.57,3.4,3.4,0,0,1-.32-.34,3.37,3.37,0,0,1-2.37.13,3.52,3.52,0,0,1-.39-.16,8.38,8.38,0,0,1-1.55.79.5.5,0,0,1-.33-.94,7.39,7.39,0,0,0,1.09-.54,2.18,2.18,0,0,1-.32-1.54c.13-1,.89-2.22,1.76-2.27.26,0,.88.06,1.12,1.06a2.75,2.75,0,0,1-.86,2.7,2.36,2.36,0,0,0,1.35-.1,3.08,3.08,0,0,1,.61-3.07c.68-.78,1.53-1,2.12-.48s.56,1.37,0,2.37a4.87,4.87,0,0,1-1.35,1.55l.11.1c.68.63,1.69.19,2.35-.25l-.1,0a1.55,1.55,0,0,1-.72-1.11c-.24-1.55,1.26-2.86,2.44-3.21a1.43,1.43,0,0,1,1.86.63c.35.76-.28,2-1.16,3a10.32,10.32,0,0,0,1.27-.27.5.5,0,1,1,.28,1,8.57,8.57,0,0,1-2.6.36l-.43.34A4.19,4.19,0,0,1,132.05,96.75Zm-3.9-4.45a2,2,0,0,0-.79,1.43,1.24,1.24,0,0,0,.14.81,2,2,0,0,0,.78-1.93A.63.63,0,0,0,128.15,92.3Zm3.57-.14a1,1,0,0,0-.62.4,2.14,2.14,0,0,0-.48,1.9,3.85,3.85,0,0,0,1-1.15c.34-.63.31-1,.22-1.12A.18.18,0,0,0,131.72,92.16Zm4.14-.44a1.41,1.41,0,0,0-.37.06c-.8.24-1.87,1.17-1.73,2.1a.56.56,0,0,0,.27.41,1.34,1.34,0,0,0,.5.17c1.16-1.08,1.76-2.32,1.63-2.6A.3.3,0,0,0,135.86,91.72Z" transform="translate(-25.72 -45.28)"/><path class="cls-2" d="M130.9,74.54a.5.5,0,0,1-.5-.5V64.79a.5.5,0,0,1,.5-.5.5.5,0,0,1,.5.5V74A.5.5,0,0,1,130.9,74.54Z" transform="translate(-25.72 -45.28)"/><path class="cls-2" d="M150.79,84.69a.51.51,0,0,1-.45-.27.51.51,0,0,1,.21-.67L157.7,80a.5.5,0,0,1,.47.89L151,84.63A.46.46,0,0,1,150.79,84.69Z" transform="translate(-25.72 -45.28)"/><path class="cls-2" d="M155.64,110.48a.5.5,0,0,1-.27-.08l-4.85-3.13a.49.49,0,0,1-.15-.69.5.5,0,0,1,.69-.15l4.85,3.13a.5.5,0,0,1,.15.69A.51.51,0,0,1,155.64,110.48Z" transform="translate(-25.72 -45.28)"/><path class="cls-2" d="M110.45,84.69a.53.53,0,0,1-.24-.06l-7.14-3.76a.5.5,0,0,1,.46-.89l7.15,3.77a.5.5,0,0,1-.23.94Z" transform="translate(-25.72 -45.28)"/><path class="cls-2" d="M105.6,110.48a.48.48,0,0,1-.42-.23.49.49,0,0,1,.15-.69l4.85-3.13a.5.5,0,1,1,.54.84l-4.85,3.13A.56.56,0,0,1,105.6,110.48Z" transform="translate(-25.72 -45.28)"/><path class="cls-2" d="M124.83,123.45H124a.51.51,0,0,1-.48-.53.49.49,0,0,1,.52-.47c.1,0,10,.37,14-4.17a.51.51,0,0,1,.71,0,.5.5,0,0,1,0,.71C135.17,123.1,127.36,123.45,124.83,123.45Z" transform="translate(-25.72 -45.28)"/><path class="cls-4" d="M53.5,115.28A11.5,11.5,0,0,1,47,113.67l-.31-.24.15-.36h0a3.48,3.48,0,0,0-.35-2c-.44-1.14-2.18-2.71-4.82-5.09l-2-1.83c-4.26-3.9-5.51-10.3-3.18-16.3,2.1-5.4,7.72-11.17,17.22-11.17S68.92,82.4,71,87.8c2.34,6,1.09,12.4-3.17,16.3l-2,1.83c-2.64,2.38-4.38,3.95-4.82,5.09a3.46,3.46,0,0,0-.34,2.07l.12.36-.31.23c-.09.06-2.32,1.53-6.7,1.59ZM47.89,113a11.45,11.45,0,0,0,5.86,1.25A13.22,13.22,0,0,0,59.62,113a5.21,5.21,0,0,1,.43-2.35c.53-1.36,2.25-2.91,5.09-5.47.63-.56,1.3-1.17,2-1.83,4-3.61,5.1-9.58,2.92-15.2-2.56-6.59-8.64-10.53-16.28-10.53S40,81.57,37.43,88.16c-2.18,5.62-1,11.59,2.92,15.2.72.66,1.39,1.27,2,1.83,2.84,2.56,4.56,4.11,5.08,5.47A5.19,5.19,0,0,1,47.89,113Z" transform="translate(-25.72 -45.28)"/><path class="cls-4" d="M53.3,127.47A5.68,5.68,0,0,1,49,125.73c-3.13-3.26-2.5-10-2.47-10.23l.07-.67.62.25a19.35,19.35,0,0,0,13.08,0l.57-.23.1.61c0,.24.95,5.87-1.81,9.34a7.1,7.1,0,0,1-5.4,2.6Zm-5.8-11.22c-.07,1.71,0,6.41,2.25,8.79a4.82,4.82,0,0,0,4,1.41,6.12,6.12,0,0,0,4.67-2.21c2-2.51,1.84-6.46,1.69-8A20.18,20.18,0,0,1,47.5,116.25Z" transform="translate(-25.72 -45.28)"/><path class="cls-4" d="M56.29,109.93a.49.49,0,0,1-.5-.46c-1.11-13.13,7.59-16.25,7.68-16.28a.5.5,0,0,1,.63.31.5.5,0,0,1-.31.64c-.33.11-8,2.93-7,15.25a.49.49,0,0,1-.45.54Z" transform="translate(-25.72 -45.28)"/><path class="cls-4" d="M50.93,111.4h0a.5.5,0,0,1-.48-.52c.42-12.32-5.56-14.81-5.62-14.83a.5.5,0,0,1-.29-.65.52.52,0,0,1,.65-.29c.27.11,6.71,2.71,6.25,15.81A.49.49,0,0,1,50.93,111.4Z" transform="translate(-25.72 -45.28)"/><path class="cls-4" d="M55,96.21a2.14,2.14,0,0,1-1.5-.58c-.11-.11-.22-.22-.31-.33a3.46,3.46,0,0,1-2.38.12,2.54,2.54,0,0,1-.38-.16,7.71,7.71,0,0,1-1.55.79.49.49,0,0,1-.64-.3.5.5,0,0,1,.3-.64,6.75,6.75,0,0,0,1.09-.53A2.25,2.25,0,0,1,49.29,93c.13-1,.89-2.23,1.76-2.28.26,0,.88.06,1.13,1.07a2.8,2.8,0,0,1-.87,2.7,2.45,2.45,0,0,0,1.35-.1,3.1,3.1,0,0,1,.62-3.08c.67-.77,1.52-1,2.11-.47s.57,1.37,0,2.36a4.78,4.78,0,0,1-1.36,1.55l.11.1c.69.63,1.69.19,2.36-.24l-.1-.06a1.53,1.53,0,0,1-.72-1.1c-.25-1.55,1.25-2.87,2.43-3.21a1.43,1.43,0,0,1,1.87.63c.34.76-.28,2-1.16,3a7.46,7.46,0,0,0,1.26-.27.51.51,0,0,1,.62.34.5.5,0,0,1-.33.62,8.59,8.59,0,0,1-2.61.36,4.26,4.26,0,0,1-.43.34A4.19,4.19,0,0,1,55,96.21Zm-3.91-4.46a2.09,2.09,0,0,0-.79,1.44,1.15,1.15,0,0,0,.15.8,2,2,0,0,0,.78-1.93A.68.68,0,0,0,51.07,91.75Zm3.58-.14A1,1,0,0,0,54,92a2.15,2.15,0,0,0-.48,1.91,4.12,4.12,0,0,0,1-1.16c.35-.63.32-1,.22-1.11A.12.12,0,0,0,54.65,91.61Zm4.13-.44a1.32,1.32,0,0,0-.36.06c-.81.24-1.88,1.18-1.74,2.1a.55.55,0,0,0,.27.41,1.34,1.34,0,0,0,.5.18c1.16-1.08,1.76-2.33,1.64-2.6A.32.32,0,0,0,58.78,91.17Z" transform="translate(-25.72 -45.28)"/><path class="cls-4" d="M53.82,74a.51.51,0,0,1-.5-.5V64.24a.5.5,0,0,1,.5-.5.5.5,0,0,1,.5.5V73.5A.5.5,0,0,1,53.82,74Z" transform="translate(-25.72 -45.28)"/><path class="cls-4" d="M73.71,84.15a.5.5,0,0,1-.23-1l7.15-3.76a.5.5,0,0,1,.46.88l-7.15,3.77A.46.46,0,0,1,73.71,84.15Z" transform="translate(-25.72 -45.28)"/><path class="cls-4" d="M78.56,109.93a.47.47,0,0,1-.27-.08l-4.85-3.12a.5.5,0,0,1,.54-.85L78.83,109a.49.49,0,0,1,.15.69A.48.48,0,0,1,78.56,109.93Z" transform="translate(-25.72 -45.28)"/><path class="cls-4" d="M33.37,84.15a.46.46,0,0,1-.23-.06L26,80.32a.5.5,0,1,1,.47-.88l7.15,3.76a.5.5,0,0,1,.2.68A.49.49,0,0,1,33.37,84.15Z" transform="translate(-25.72 -45.28)"/><path class="cls-4" d="M28.52,109.93a.51.51,0,0,1-.42-.23.5.5,0,0,1,.15-.69l4.85-3.13a.5.5,0,0,1,.54.85l-4.85,3.12A.45.45,0,0,1,28.52,109.93Z" transform="translate(-25.72 -45.28)"/><path class="cls-4" d="M47.76,122.9H47a.51.51,0,0,1-.48-.52.5.5,0,0,1,.52-.48c.1,0,10,.38,14-4.17a.49.49,0,0,1,.7,0,.51.51,0,0,1,.05.71C58.1,122.55,50.29,122.9,47.76,122.9Z" transform="translate(-25.72 -45.28)"/><path class="cls-4" d="M206.59,113.79a3.62,3.62,0,0,1,.34-2.43c.59-1.53,3.1-3.56,7-7.11,8.93-8.17,3.09-26.59-13.71-26.59h-.08c-16.8,0-22.64,18.42-13.7,26.59,3.87,3.55,6.38,5.58,7,7.11a3.6,3.6,0,0,1,.35,2.43s2.14,1.57,6.42,1.51A12.64,12.64,0,0,0,206.59,113.79Z" transform="translate(-25.72 -45.28)"/><path class="cls-4" d="M193.45,116.07a19.74,19.74,0,0,0,13.46.05s1.82,10.84-6.75,11.36C192.26,128,193.45,116.07,193.45,116.07Z" transform="translate(-25.72 -45.28)"/><path class="cls-5" d="M202.69,110.46a.52.52,0,0,1-.5-.46c-1.1-13.13,7.59-16.25,7.68-16.28a.51.51,0,0,1,.64.31.5.5,0,0,1-.31.63c-.33.12-8,2.93-7,15.25a.5.5,0,0,1-.46.54Z" transform="translate(-25.72 -45.28)"/><path class="cls-5" d="M197.33,111.92h0a.5.5,0,0,1-.48-.51c.43-12.33-5.55-14.82-5.62-14.84a.51.51,0,0,1-.28-.65.5.5,0,0,1,.64-.28c.28.1,6.71,2.7,6.26,15.8A.5.5,0,0,1,197.33,111.92Z" transform="translate(-25.72 -45.28)"/><path class="cls-5" d="M201.38,96.73a2.13,2.13,0,0,1-1.49-.58,3.31,3.31,0,0,1-.32-.33,3.37,3.37,0,0,1-2.37.12,1.68,1.68,0,0,1-.39-.16,8.46,8.46,0,0,1-1.54.8.51.51,0,0,1-.64-.31.5.5,0,0,1,.3-.64A6.75,6.75,0,0,0,196,95.1a2.19,2.19,0,0,1-.32-1.54c.13-1,.89-2.22,1.76-2.27.26,0,.88.06,1.12,1.06a2.77,2.77,0,0,1-.86,2.7,2.45,2.45,0,0,0,1.35-.1,3.12,3.12,0,0,1,.61-3.08c.68-.77,1.53-1,2.12-.47s.56,1.37,0,2.37a5,5,0,0,1-1.36,1.54l.11.11c.68.63,1.69.18,2.35-.25l-.09-.06a1.57,1.57,0,0,1-.73-1.1c-.24-1.55,1.26-2.86,2.44-3.21a1.42,1.42,0,0,1,1.86.63c.35.76-.28,2-1.16,3a8.55,8.55,0,0,0,1.27-.26.5.5,0,1,1,.28,1,8.85,8.85,0,0,1-2.6.36l-.43.33A4.21,4.21,0,0,1,201.38,96.73Zm-3.9-4.46a2,2,0,0,0-.79,1.44,1.21,1.21,0,0,0,.14.8,2,2,0,0,0,.78-1.93A.72.72,0,0,0,197.48,92.27Zm3.58-.13a1,1,0,0,0-.62.39,2.14,2.14,0,0,0-.49,1.91,3.77,3.77,0,0,0,1-1.16c.35-.63.31-1,.22-1.11A.17.17,0,0,0,201.06,92.14Zm4.13-.44a1.41,1.41,0,0,0-.37.06c-.8.24-1.87,1.17-1.73,2.1a.56.56,0,0,0,.27.41,1.34,1.34,0,0,0,.5.17c1.16-1.08,1.76-2.32,1.63-2.6A.3.3,0,0,0,205.19,91.7Z" transform="translate(-25.72 -45.28)"/><path class="cls-5" d="M200.23,74.52a.5.5,0,0,1-.5-.5V64.76a.5.5,0,0,1,1,0V74A.5.5,0,0,1,200.23,74.52Z" transform="translate(-25.72 -45.28)"/><path class="cls-5" d="M220.12,84.67a.5.5,0,0,1-.44-.27.49.49,0,0,1,.21-.67L227,80a.51.51,0,0,1,.68.21.49.49,0,0,1-.21.67l-7.15,3.77A.46.46,0,0,1,220.12,84.67Z" transform="translate(-25.72 -45.28)"/><path class="cls-5" d="M225,110.46a.53.53,0,0,1-.27-.08l-4.85-3.13a.5.5,0,0,1-.15-.69.49.49,0,0,1,.69-.15l4.85,3.13a.5.5,0,0,1,.15.69A.51.51,0,0,1,225,110.46Z" transform="translate(-25.72 -45.28)"/><path class="cls-5" d="M179.78,84.67a.46.46,0,0,1-.23-.06l-7.15-3.77a.49.49,0,0,1-.21-.67.5.5,0,0,1,.67-.21L180,83.73a.49.49,0,0,1,.21.67A.5.5,0,0,1,179.78,84.67Z" transform="translate(-25.72 -45.28)"/><path class="cls-5" d="M174.93,110.46a.48.48,0,0,1-.42-.23.49.49,0,0,1,.15-.69l4.85-3.13a.49.49,0,0,1,.69.15.5.5,0,0,1-.15.69l-4.85,3.13A.56.56,0,0,1,174.93,110.46Z" transform="translate(-25.72 -45.28)"/><path class="cls-5" d="M194.16,123.43c-.45,0-.73,0-.79,0a.5.5,0,0,1-.48-.52.5.5,0,0,1,.52-.48c.1,0,10,.38,14-4.17a.51.51,0,0,1,.71,0,.48.48,0,0,1,0,.7C204.5,123.07,196.69,123.43,194.16,123.43Z" transform="translate(-25.72 -45.28)"/><rect class="cls-4" x="225.59" y="88.92" width="52.26" height="16.85" rx="8.43"/><path class="cls-5" d="M263.64,142.73v.05l.32,0a2.8,2.8,0,0,1,1,0,1.15,1.15,0,0,1,.31.11.4.4,0,0,1,.24.32.27.27,0,0,1-.1.28.2.2,0,0,1-.22,0l-.12-.05a8.92,8.92,0,0,0-1.46-.06l-.06,0a1.87,1.87,0,0,0,0,.25c-.09.69-.17,1.39-.26,2.08l-.09.86a1.41,1.41,0,0,1-.06.22.39.39,0,0,1-.35.26.37.37,0,0,1-.37-.23,1.06,1.06,0,0,1-.09-.35,6.63,6.63,0,0,1,0-1.09c.06-.6.15-1.19.25-1.78a.51.51,0,0,0,0-.13l-.38.06-.19,0a.12.12,0,0,1-.12-.07.11.11,0,0,1,0-.14.67.67,0,0,1,.14-.11,5.45,5.45,0,0,1,.55-.25.17.17,0,0,0,.12-.14,12.66,12.66,0,0,1,.45-1.6.11.11,0,0,0,0-.12c-.06-.08,0-.12.06-.14s.07-.06.09-.11c.12-.25.23-.51.36-.75a5,5,0,0,1,1.33-1.59,4.12,4.12,0,0,1,.45-.27.75.75,0,0,1,.44-.08.55.55,0,0,1,.48.52,1.27,1.27,0,0,1-.07.48A3.4,3.4,0,0,1,265,141a2.11,2.11,0,0,1-.84.33.15.15,0,0,0-.14.1A11.71,11.71,0,0,0,263.64,142.73Zm.62-1.89a2.73,2.73,0,0,0,1.42-1.83A4.21,4.21,0,0,0,264.26,140.84Z" transform="translate(-25.72 -45.28)"/><path class="cls-5" d="M271.59,143.47a1,1,0,0,1-.2.22,4.41,4.41,0,0,1-2.55,1.11h-.44a.29.29,0,0,0-.22.08,3.13,3.13,0,0,1-1.31.72,1.45,1.45,0,0,1-.55.05.93.93,0,0,1-.88-.94,2.29,2.29,0,0,1,.15-.86,3,3,0,0,1,1-1.35,2.52,2.52,0,0,1,.42-.24.4.4,0,0,0,.16-.12,1.78,1.78,0,0,1,.57-.45,1,1,0,0,1,1.42.58,1.72,1.72,0,0,1,0,1.14c0,.14-.11.28-.16.43s0,0,0,.08l.22,0a13.47,13.47,0,0,0,2-.61l.22-.09a.19.19,0,0,1,.23.07A.18.18,0,0,1,271.59,143.47Zm-4.16,1.11a1.45,1.45,0,0,1-.61-.59,1.65,1.65,0,0,1-.15-.82,2.59,2.59,0,0,0-.47.88,2,2,0,0,0-.09.59c0,.23.12.33.35.32A1.89,1.89,0,0,0,267.43,144.58Zm1.07-1.69c0-.06,0-.13,0-.2a.65.65,0,0,0,0-.13.32.32,0,0,0-.48-.19s-.08,0-.1.06-.19.14-.26.24a2.87,2.87,0,0,0-.2.39.62.62,0,0,0,.52.88c.15,0,.15,0,.24-.1l.11-.16A1.81,1.81,0,0,0,268.5,142.89Z" transform="translate(-25.72 -45.28)"/><path class="cls-5" d="M275.12,143.68a2.9,2.9,0,0,1-.78,1.13,2.68,2.68,0,0,1-1.18.64,1.52,1.52,0,0,1-1.29-.23,1.89,1.89,0,0,1-.73-1.2,3.52,3.52,0,0,1,.07-1.58,7.21,7.21,0,0,1,.57-1.55,12.25,12.25,0,0,1,1-1.71,3.23,3.23,0,0,1,.71-.72,1.52,1.52,0,0,1,.75-.32.68.68,0,0,1,.75.47,1.56,1.56,0,0,1-.07,1.18,4.19,4.19,0,0,1-.68,1.08,4.92,4.92,0,0,1-1.32,1.13,2.81,2.81,0,0,1-.74.3l-.1,0a3.11,3.11,0,0,0-.17,1.42,1.1,1.1,0,0,0,.16.46.64.64,0,0,0,.53.3,1.46,1.46,0,0,0,.61-.13,3.86,3.86,0,0,0,1.07-.63l.63-.54.11-.09a.19.19,0,0,1,.13.18A.64.64,0,0,1,275.12,143.68Zm-2.75-2.07,0,0,.07-.06a6,6,0,0,0,1.26-1.44,2.51,2.51,0,0,0,.31-.71,1,1,0,0,0,0-.45A10.46,10.46,0,0,0,272.37,141.61Z" transform="translate(-25.72 -45.28)"/><path class="cls-5" d="M278.58,143.68a2.88,2.88,0,0,1-.77,1.13,2.66,2.66,0,0,1-1.19.64,1.5,1.5,0,0,1-1.28-.23,1.85,1.85,0,0,1-.73-1.2,3.66,3.66,0,0,1,.06-1.58,7.82,7.82,0,0,1,.58-1.55,12.19,12.19,0,0,1,1-1.71,3.73,3.73,0,0,1,.71-.72,1.59,1.59,0,0,1,.76-.32.68.68,0,0,1,.75.47,1.56,1.56,0,0,1-.07,1.18,4.48,4.48,0,0,1-.68,1.08,4.92,4.92,0,0,1-1.32,1.13,3,3,0,0,1-.74.3l-.1,0a3.26,3.26,0,0,0-.18,1.42,1.28,1.28,0,0,0,.17.46.64.64,0,0,0,.53.3,1.46,1.46,0,0,0,.61-.13,3.81,3.81,0,0,0,1.06-.63c.22-.17.42-.36.63-.54l.12-.09a.19.19,0,0,1,.13.18A.65.65,0,0,1,278.58,143.68Zm-2.74-2.07,0,0,.08-.06a5.77,5.77,0,0,0,1.25-1.44,2.28,2.28,0,0,0,.32-.71,1.12,1.12,0,0,0,0-.45A10.19,10.19,0,0,0,275.84,141.61Z" transform="translate(-25.72 -45.28)"/><path class="cls-5" d="M284.19,143.47a1,1,0,0,1-.2.22,4.41,4.41,0,0,1-2.55,1.11H281a.29.29,0,0,0-.22.08,3.13,3.13,0,0,1-1.31.72,1.45,1.45,0,0,1-.55.05.93.93,0,0,1-.88-.94,2.29,2.29,0,0,1,.15-.86,3,3,0,0,1,1-1.35,2.52,2.52,0,0,1,.42-.24.4.4,0,0,0,.16-.12,1.78,1.78,0,0,1,.57-.45,1,1,0,0,1,1.42.58,1.72,1.72,0,0,1,0,1.14c0,.14-.11.28-.16.43s0,0,0,.08l.22,0a13.87,13.87,0,0,0,2-.61l.22-.09a.19.19,0,0,1,.23.07A.18.18,0,0,1,284.19,143.47ZM280,144.58a1.45,1.45,0,0,1-.61-.59,1.65,1.65,0,0,1-.15-.82,2.59,2.59,0,0,0-.47.88,2,2,0,0,0-.09.59c0,.23.12.33.35.32A1.89,1.89,0,0,0,280,144.58Zm1.07-1.69c0-.06,0-.13,0-.2a.65.65,0,0,0,0-.13.32.32,0,0,0-.48-.19s-.08,0-.1.06-.2.14-.26.24a2.87,2.87,0,0,0-.2.39.62.62,0,0,0,.52.88c.15,0,.15,0,.24-.1l.11-.16A1.81,1.81,0,0,0,281.1,142.89Z" transform="translate(-25.72 -45.28)"/><path class="cls-5" d="M293,143.57l0,0a6.26,6.26,0,0,1-1.41.93,1.74,1.74,0,0,1-1.23,0c-.13-.05-.24-.12-.38-.18l-.1.09a4.42,4.42,0,0,1-1.3,1,3,3,0,0,1-1,.28,1.46,1.46,0,0,1-1.51-.89,2.3,2.3,0,0,1-.2-.61,1.06,1.06,0,0,1,0-.14l-.35.44a5.38,5.38,0,0,1-.79.86,1.22,1.22,0,0,1-.44.26.59.59,0,0,1-.74-.31,1,1,0,0,1-.09-.67,3.82,3.82,0,0,1,.35-1.05,4.61,4.61,0,0,1,.85-1.25,1.45,1.45,0,0,1,.47-.34.46.46,0,0,1,.28-.06l.1,0c.08,0,.09.08,0,.15a6.56,6.56,0,0,0-1,2.07.41.41,0,0,0,0,.09l.11-.09.88-.92c.13-.13.25-.27.39-.39a.59.59,0,0,1,.22-.12.37.37,0,0,1,.42.36v.37a2.53,2.53,0,0,0,.1.67,1.2,1.2,0,0,0,.22.4.61.61,0,0,0,.52.22,1.89,1.89,0,0,0,.81-.26,4.28,4.28,0,0,0,1.22-1,.24.24,0,0,0,0-.16,1.69,1.69,0,0,1,.08-.74,1.22,1.22,0,0,1,.35-.56.57.57,0,0,1,.95.29.94.94,0,0,1,0,.55c-.07.19-.15.37-.23.55l-.06.12a.3.3,0,0,0,.17.1,2.12,2.12,0,0,0,.71.06,6.76,6.76,0,0,0,1.35-.47l.08,0a.19.19,0,0,1,.18.32Z" transform="translate(-25.72 -45.28)"/><path class="cls-4" d="M270.66,63.93a4.39,4.39,0,1,1,4.39-4.39A4.4,4.4,0,0,1,270.66,63.93Zm0-7.77a3.39,3.39,0,1,0,3.39,3.38A3.39,3.39,0,0,0,270.66,56.16Z" transform="translate(-25.72 -45.28)"/><path class="cls-4" d="M265,54.06a4.37,4.37,0,1,1,1.15-.15A4.54,4.54,0,0,1,265,54.06Zm0-7.78A3.37,3.37,0,0,0,262,48a3.37,3.37,0,0,0,1.24,4.62,3.38,3.38,0,0,0,3.38-5.86A3.32,3.32,0,0,0,265,46.28Z" transform="translate(-25.72 -45.28)"/><path class="cls-4" d="M276.37,54.06a4.4,4.4,0,0,1-4.25-5.53,4.39,4.39,0,1,1,4.25,5.53Zm0-7.78a3.38,3.38,0,0,0-2.93,5.08,3.39,3.39,0,1,0,2.93-5.08Z" transform="translate(-25.72 -45.28)"/><circle class="cls-6" cx="537.42" cy="53.93" r="6.07"/><circle class="cls-6" cx="558.42" cy="94.34" r="6.07"/><circle class="cls-6" cx="516.56" cy="94.34" r="6.07"/><polyline class="cls-6" points="540.27 82.51 537.42 77.23 534.51 82.48"/><polyline class="cls-6" points="531.24 88.38 528.33 93.63 531.73 98.57"/><polyline class="cls-6" points="532.08 106.53 531.55 112.51 537.55 112.51"/><polyline class="cls-6" points="537.64 112.51 543.64 112.51 542.81 106.57"/><polyline class="cls-6" points="542.83 98.51 546.26 93.59 543.41 88.31"/><line class="cls-6" x1="537.4" y1="94.69" x2="537.42" y2="77.23"/><polyline class="cls-6" points="516.55 94.69 537.42 53.93 558.25 94.69"/><g id="Group_913" data-name="Group 913"><circle id="Ellipse_450" data-name="Ellipse 450" class="cls-7" cx="595.96" cy="67.01" r="6.07"/><g id="Group_912" data-name="Group 912"><path id="Path_604" data-name="Path 604" class="cls-7" d="M624.54,114.93l-2.85-5.28-2.91,5.25" transform="translate(-25.72 -45.28)"/><path id="Path_605" data-name="Path 605" class="cls-7" d="M615.5,118.08l-2.91,5.24,3.4,5" transform="translate(-25.72 -45.28)"/><path id="Path_606" data-name="Path 606" class="cls-7" d="M616.34,132.82l-.53,6h6" transform="translate(-25.72 -45.28)"/><path id="Path_607" data-name="Path 607" class="cls-7" d="M621.9,138.8h6l-.83-5.94" transform="translate(-25.72 -45.28)"/><path id="Path_608" data-name="Path 608" class="cls-7" d="M627.09,128.22l3.43-4.92L627.67,118" transform="translate(-25.72 -45.28)"/></g><line id="Line_122" data-name="Line 122" class="cls-7" x1="595.94" y1="87.43" x2="595.96" y2="65.78"/></g></svg>