<?xml version="1.0" encoding="UTF-8"?>
<svg id="Layer_2" data-name="Layer 2" xmlns="http://www.w3.org/2000/svg" viewBox="0 0 152.98 156.08">
  <defs>
    <style>
      .cls-1 {
        fill: #34a353;
      }

      .cls-1, .cls-2, .cls-3, .cls-4 {
        stroke-width: 0px;
      }

      .cls-2 {
        fill: #f6b704;
      }

      .cls-3 {
        fill: #e54335;
      }

      .cls-4 {
        fill: #4280ef;
      }
    </style>
  </defs>
  <g id="Layer_1-2" data-name="Layer 1">
    <g>
      <path class="cls-4" d="M152.98,79.91c0-5.27-.51-10.71-1.36-15.81h-73.62v30.09h42.17c-1.7,9.69-7.31,18.19-15.64,23.63l25.16,19.55c14.79-13.77,23.29-33.83,23.29-57.47h0Z"/>
      <path class="cls-1" d="M78,156.08c21.08,0,38.77-6.97,51.69-18.87l-25.16-19.38c-6.97,4.76-15.98,7.48-26.52,7.48-20.4,0-37.58-13.77-43.87-32.13l-25.84,19.89c13.26,26.35,40.13,43.02,69.71,43.02Z"/>
      <path class="cls-2" d="M34.13,93.01c-3.23-9.69-3.23-20.23,0-29.92l-25.84-20.06c-11.05,22.1-11.05,48.12,0,70.05l25.84-20.06Z"/>
      <path class="cls-3" d="M78,30.95c11.05-.17,21.93,4.08,29.92,11.73l22.27-22.44C116.08,6.97,97.38-.17,78,0,48.41,0,21.55,16.67,8.29,43.02l25.84,20.06c6.29-18.53,23.46-32.13,43.87-32.13Z"/>
    </g>
  </g>
</svg>