<?xml version="1.0" encoding="UTF-8"?>
<svg id="Layer_2" data-name="Layer 2" xmlns="http://www.w3.org/2000/svg" viewBox="0 0 202.68 168.39">
  <defs>
    <style>
      .cls-1 {
        fill: #ccc;
        stroke-width: 0px;
      }
    </style>
  </defs>
  <g id="Layer_1-2" data-name="Layer 1">
    <g>
      <path class="cls-1" d="M168.17,81.19v86.54c0,.36-.29.66-.66.66h-45.26c-.36,0-.66-.29-.66-.66v-55.46c0-.36-.29-.66-.66-.66h-39.21c-.36,0-.66.29-.66.66v55.46c0,.36-.29.66-.66.66h-45.24c-.36,0-.66-.29-.66-.66v-86.54c0-.21.1-.41.28-.54l66.15-46.58c.23-.16.53-.16.76,0l66.18,46.58c.17.12.28.32.28.54Z"/>
      <path class="cls-1" d="M6.12,79.43c-1.92,0-3.81-.9-5-2.59-1.94-2.76-1.28-6.58,1.48-8.52L97.82,1.27c2.11-1.48,4.93-1.48,7.04,0l95.22,67.04c2.76,1.94,3.42,5.76,1.48,8.52-1.95,2.76-5.76,3.42-8.52,1.48L101.34,13.75,9.64,78.31c-1.07.75-2.3,1.11-3.51,1.11Z"/>
      <path class="cls-1" d="M177.76.36v46.03c0,.11-.12.17-.21.11l-31.88-22.44c-.28-.19-.44-.51-.44-.85V.36c0-.2.16-.36.36-.36h31.81c.2,0,.36.16.36.36Z"/>
    </g>
  </g>
</svg>