<?xml version="1.0" encoding="UTF-8"?>
<svg id="Layer_2" data-name="Layer 2" xmlns="http://www.w3.org/2000/svg" xmlns:xlink="http://www.w3.org/1999/xlink" viewBox="0 0 150.52 219.39">
  <defs>
    <style>
      .cls-1 {
        fill: none;
      }

      .cls-1, .cls-2 {
        stroke-width: 0px;
      }

      .cls-2 {
        fill: #b3b3b3;
      }

      .cls-3 {
        clip-path: url(#clippath);
      }
    </style>
    <clipPath id="clippath">
      <rect class="cls-1" x="1.9" width="148.62" height="219.39"/>
    </clipPath>
  </defs>
  <g id="Layer_1-2" data-name="Layer 1">
    <g class="cls-3">
      <path class="cls-2" d="M73.23,197.18c-9.7-9.18-21.1-16.37-33.57-21.16-12.65-4.89-26.1-7.37-39.67-7.32v-89.51c13.51-.04,26.9,2.48,39.47,7.42,12.54,4.9,24.01,12.19,33.77,21.46,9.76-9.27,21.23-16.56,33.77-21.46,12.57-4.94,25.96-7.46,39.47-7.42v89.51c-13.6-.07-27.09,2.42-39.77,7.32-12.43,4.81-23.8,11.99-33.47,21.16ZM73.23,176.02c8.37-6.28,17.54-11.41,27.26-15.26,9.54-3.77,19.53-6.3,29.72-7.52v-56.14c-10.26,1.89-20.13,5.5-29.19,10.68-10.2,5.85-19.54,13.07-27.77,21.46-8.23-8.39-17.57-15.61-27.77-21.46-9.06-5.18-18.93-8.79-29.19-10.68v56.14c10.19,1.22,20.18,3.75,29.72,7.52,9.71,3.85,18.86,8.98,27.22,15.25h0ZM73.23,87.32c-8.65.12-16.97-3.34-22.99-9.56-6.22-6.01-9.68-14.33-9.56-22.99-.12-8.65,3.34-16.97,9.56-22.99,6.01-6.22,14.33-9.68,22.99-9.56,8.65-.12,16.97,3.34,22.99,9.56,6.22,6.01,9.69,14.33,9.56,22.99.12,8.65-3.34,16.97-9.56,22.99-6.01,6.22-14.33,9.68-22.99,9.55h0ZM73.23,71.05c4.33.06,8.49-1.67,11.49-4.78,3.11-3.01,4.84-7.17,4.78-11.49.06-4.33-1.67-8.49-4.78-11.49-3.01-3.11-7.17-4.84-11.49-4.78-4.33-.06-8.49,1.67-11.49,4.78-3.11,3.01-4.85,7.17-4.78,11.49-.06,4.33,1.67,8.49,4.78,11.49,3.01,3.11,7.17,4.84,11.49,4.78Z"/>
    </g>
  </g>
</svg>