<?xml version="1.0" encoding="UTF-8"?>
<svg id="Layer_2" data-name="Layer 2" xmlns="http://www.w3.org/2000/svg" xmlns:xlink="http://www.w3.org/1999/xlink" viewBox="0 0 157.98 230.27">
  <defs>
    <style>
      .cls-1 {
        fill: #4d4d4d;
      }

      .cls-1, .cls-2 {
        stroke-width: 0px;
      }

      .cls-2 {
        fill: none;
      }

      .cls-3 {
        clip-path: url(#clippath);
      }
    </style>
    <clipPath id="clippath">
      <rect class="cls-2" x="1.99" width="155.99" height="230.27"/>
    </clipPath>
  </defs>
  <g id="Layer_1-2" data-name="Layer 1">
    <g class="cls-3">
      <path class="cls-1" d="M76.87,206.96c-10.18-9.64-22.15-17.18-35.23-22.21-13.28-5.13-27.4-7.74-41.63-7.69v-93.95c14.18-.04,28.23,2.61,41.43,7.79,13.16,5.14,25.2,12.8,35.45,22.53,10.25-9.73,22.29-17.38,35.45-22.53,13.19-5.19,27.25-7.83,41.43-7.79v93.95c-14.27-.07-28.43,2.54-41.75,7.69-13.05,5.05-24.98,12.59-35.13,22.21ZM76.87,184.75c8.78-6.59,18.41-11.97,28.61-16.01,10.02-3.96,20.5-6.62,31.2-7.9v-58.93c-10.77,1.99-21.13,5.78-30.64,11.21-10.7,6.14-20.51,13.71-29.15,22.52-8.64-8.81-18.44-16.39-29.15-22.52-9.51-5.43-19.87-9.22-30.64-11.21v58.93c10.7,1.28,21.18,3.94,31.2,7.9,10.19,4.04,19.8,9.43,28.57,16.01h0ZM76.87,91.65c-9.08.13-17.82-3.5-24.13-10.04-6.53-6.31-10.16-15.04-10.04-24.13-.13-9.08,3.5-17.82,10.04-24.13,6.31-6.53,15.04-10.16,24.13-10.04,9.08-.13,17.81,3.5,24.13,10.04,6.53,6.31,10.17,15.04,10.04,24.13.13,9.08-3.5,17.81-10.04,24.13-6.31,6.53-15.04,10.16-24.13,10.03h0ZM76.87,74.57c4.54.06,8.91-1.75,12.06-5.02,3.27-3.16,5.08-7.52,5.02-12.06.06-4.54-1.75-8.91-5.02-12.06-3.16-3.27-7.52-5.08-12.06-5.01-4.54-.07-8.91,1.75-12.06,5.01-3.27,3.16-5.09,7.52-5.02,12.06-.06,4.54,1.75,8.91,5.02,12.06,3.16,3.27,7.52,5.09,12.06,5.02Z"/>
    </g>
  </g>
</svg>