<?xml version="1.0" encoding="UTF-8"?>
<svg id="Layer_2" data-name="Layer 2" xmlns="http://www.w3.org/2000/svg" viewBox="0 0 140.4 140.4">
  <defs>
    <style>
      .cls-1 {
        fill: #4d4d4d;
        stroke-width: 0px;
      }
    </style>
  </defs>
  <g id="Layer_1-2" data-name="Layer 1">
    <path class="cls-1" d="M15.6,115.82c7.06-6.92,15.36-12.44,24.47-16.28,9.53-4.01,19.78-6.03,30.12-5.94,10.34-.09,20.59,1.93,30.12,5.94,9.11,3.84,17.41,9.36,24.47,16.28V15.59H15.6v100.23ZM70.2,78c7.26.11,14.24-2.78,19.29-8,5.21-5.05,8.11-12.03,8-19.29.11-7.26-2.78-14.24-8-19.29-5.05-5.21-12.03-8.11-19.29-8-7.26-.11-14.24,2.78-19.29,8-5.23,5.05-8.14,12.04-8.03,19.31-.11,7.26,2.78,14.24,8,19.29,5.07,5.22,12.06,8.1,19.33,7.97h0ZM15.6,140.4c-4.15.06-8.14-1.6-11.02-4.58C1.6,132.93-.06,128.95,0,124.8V15.6C-.06,11.45,1.6,7.46,4.58,4.58,7.46,1.6,11.45-.06,15.6,0h109.2c4.15-.06,8.14,1.6,11.02,4.58,2.98,2.88,4.64,6.87,4.58,11.02v109.2c.06,4.15-1.6,8.14-4.58,11.02-2.88,2.98-6.87,4.64-11.02,4.58H15.6ZM31.2,124.8h78v-1.95c-5.36-4.5-11.51-7.97-18.13-10.24-6.72-2.29-13.77-3.44-20.86-3.42-7.1-.03-14.15,1.13-20.86,3.42-6.62,2.27-12.77,5.74-18.13,10.24v1.95ZM70.2,62.4c-3.12.05-6.12-1.18-8.29-3.42-2.23-2.17-3.47-5.17-3.42-8.29-.06-3.12,1.18-6.12,3.42-8.29,2.17-2.23,5.17-3.47,8.29-3.42,3.12-.05,6.12,1.18,8.29,3.42,2.23,2.17,3.47,5.17,3.42,8.29.06,3.12-1.18,6.12-3.42,8.29-2.17,2.23-5.17,3.46-8.28,3.41h0Z"/>
  </g>
</svg>