<?xml version="1.0" encoding="UTF-8"?>
<svg id="Layer_2" data-name="Layer 2" xmlns="http://www.w3.org/2000/svg" viewBox="0 0 143.51 143.51">
  <defs>
    <style>
      .cls-1 {
        fill: #b3b3b3;
        stroke-width: 0px;
      }
    </style>
  </defs>
  <g id="Layer_1-2" data-name="Layer 1">
    <path class="cls-1" d="M15.94,118.39c7.22-7.07,15.7-12.72,25.01-16.64,9.74-4.1,20.22-6.17,30.79-6.08,10.57-.09,21.05,1.98,30.79,6.08,9.31,3.93,17.8,9.57,25.01,16.64V15.94H15.94v102.45ZM71.75,79.72c7.42.11,14.56-2.84,19.72-8.17,5.33-5.16,8.29-12.3,8.17-19.72.11-7.42-2.84-14.56-8.17-19.72-5.16-5.33-12.3-8.29-19.72-8.17-7.42-.11-14.56,2.84-19.72,8.17-5.35,5.16-8.32,12.3-8.21,19.73-.11,7.42,2.84,14.56,8.17,19.72,5.18,5.33,12.33,8.28,19.76,8.15h0ZM15.94,143.5c-4.24.06-8.32-1.63-11.26-4.68C1.63,135.88-.06,131.8,0,127.56V15.94C-.06,11.71,1.63,7.63,4.68,4.68,7.63,1.63,11.71-.06,15.94,0h111.62c4.24-.06,8.32,1.63,11.26,4.68,3.05,2.95,4.74,7.02,4.68,11.26v111.62c.06,4.24-1.63,8.32-4.68,11.26-2.95,3.05-7.02,4.74-11.26,4.68H15.94ZM31.89,127.56h79.72v-1.99c-5.48-4.6-11.77-8.14-18.54-10.47-6.86-2.34-14.07-3.52-21.33-3.49-7.25-.03-14.46,1.15-21.33,3.49-6.77,2.32-13.05,5.87-18.54,10.47v1.99ZM71.75,63.78c-3.18.06-6.25-1.21-8.47-3.49-2.28-2.22-3.55-5.29-3.49-8.47-.06-3.18,1.21-6.25,3.49-8.47,2.22-2.28,5.29-3.55,8.47-3.49,3.18-.06,6.25,1.21,8.47,3.49,2.28,2.22,3.55,5.29,3.49,8.47.06,3.18-1.21,6.25-3.49,8.47-2.22,2.28-5.28,3.54-8.46,3.48h0Z"/>
  </g>
</svg>