<?xml version="1.0" encoding="UTF-8"?>
<svg id="Layer_2" data-name="Layer 2" xmlns="http://www.w3.org/2000/svg" viewBox="0 0 143.26 142.89">
  <defs>
    <style>
      .cls-1 {
        fill: #ccc;
        stroke-width: 0px;
      }
    </style>
  </defs>
  <g id="Layer_1-2" data-name="Layer 1">
    <path class="cls-1" d="M142.92,66.41c-.02-3.31,1.07-7.54-.54-9.66-1.61-2.12-5.95-2.33-9.17-3.02-2.58-.55-3.75-1.85-5.02-4.23-2.4-4.45-1.8-8.05,1.04-11.79.83-1.08,1.23-2.49,2.09-3.53,1.48-1.79,1.13-3.02-.48-4.58-5.68-5.5-11.34-11.02-16.75-16.77-2.05-2.19-3.6-2.37-5.92-.67-1.93,1.41-4.22,2.31-6.19,3.66-1.82,1.25-3.29.8-5.32.33-5.59-1.29-7.61-4.97-8.3-10.07-.2-1.46-.92-2.84-1.14-4.3C86.99.25,86.19,0,84.87,0c-8.82.03-17.65.03-26.46,0-1.36,0-2.01.39-2.33,1.83-.63,2.89-1.68,5.7-2.27,8.6-.46,2.25-1.78,3.13-3.7,4.27-4.58,2.74-8.43,2.11-12.38-.97-1.16-.9-2.65-1.37-3.83-2.25-1.49-1.11-2.47-.87-3.73.45-3.88,4.06-7.92,7.96-11.87,11.94-2.49,2.51-6.39,4.74-7.05,7.68-.72,3.19,2.95,6.34,4.75,9.48,1.07,1.87.92,3.31.37,5.35-1.38,5.16-4.48,7.8-9.67,8.31-1.01.1-1.97.66-2.98.76-2.89.28-3.56,1.81-3.43,4.57.25,5.15.04,10.31.08,15.46.03,3.65-1.14,8.22.61,10.68,1.6,2.26,6.37,2.38,9.81,3.17,2.25.52,3.15,1.85,4.22,3.79,2.42,4.42,2.14,8.27-.96,12.12-.92,1.14-1.43,2.61-2.29,3.81-1.16,1.6-.88,2.66.54,4.04,6.08,5.9,12.05,11.92,17.98,17.96,1.12,1.14,1.95,1.47,3.41.51,2.49-1.62,5.23-2.84,7.68-4.51,1.85-1.27,3.31-.76,5.3-.3,5.43,1.24,7.54,4.75,8.21,9.77.18,1.34.91,2.61,1.06,3.95.25,2.11,1.4,2.49,3.28,2.43,4.12-.12,8.24-.03,12.37-.03h8.59c6.61,0,6.89.06,8.22-6.52.98-4.85,2.82-8.14,8.02-9.53,2.31-.62,3.94-.86,5.92.44,2.38,1.57,4.99,2.79,7.37,4.35,1.34.87,2.09.67,3.15-.42,4.07-4.19,8.29-8.23,12.35-12.43,2.45-2.53,6.73-4.61,6.88-7.7.14-2.99-2.88-6.23-4.77-9.2-1.18-1.85-.96-3.29-.39-5.33,1.42-5.12,4.4-7.84,9.66-8.3,1.34-.11,2.64-.76,3.98-.99,1.96-.32,2.47-1.34,2.42-3.3-.14-5.83-.03-11.68-.06-17.52ZM71.52,107.34c-20-.14-35.98-16.23-35.89-36.13.1-19.84,16.3-35.76,36.32-35.69,19.67.08,35.73,16.25,35.71,35.95-.03,19.86-16.29,36-36.14,35.86Z"/>
  </g>
</svg>