<?xml version="1.0" encoding="UTF-8"?>
<svg id="Layer_2" data-name="Layer 2" xmlns="http://www.w3.org/2000/svg" viewBox="0 0 150.59 150.19">
  <defs>
    <style>
      .cls-1 {
        fill: #4d4d4d;
        stroke-width: 0px;
      }
    </style>
  </defs>
  <g id="Layer_1-2" data-name="Layer 1">
    <path class="cls-1" d="M150.23,69.8c-.02-3.48,1.13-7.92-.57-10.16-1.69-2.23-6.26-2.45-9.64-3.18-2.71-.58-3.94-1.95-5.28-4.45-2.53-4.68-1.89-8.46,1.09-12.39.87-1.14,1.29-2.62,2.19-3.71,1.56-1.88,1.19-3.18-.51-4.81-5.97-5.78-11.92-11.58-17.61-17.63-2.16-2.3-3.79-2.49-6.23-.71-2.03,1.48-4.44,2.43-6.5,3.85-1.91,1.32-3.46.84-5.59.35-5.87-1.36-8-5.22-8.72-10.58-.21-1.53-.96-2.99-1.19-4.52C91.44.27,90.6,0,89.21,0c-9.27.04-18.55.04-27.82,0-1.43,0-2.11.41-2.45,1.92-.67,3.04-1.77,5.99-2.39,9.04-.49,2.37-1.87,3.29-3.89,4.49-4.81,2.88-8.86,2.22-13.01-1.02-1.22-.95-2.79-1.44-4.03-2.37-1.56-1.17-2.59-.92-3.92.47-4.08,4.26-8.33,8.36-12.48,12.55-2.62,2.64-6.71,4.98-7.41,8.07-.75,3.35,3.11,6.67,4.99,9.97,1.12,1.96.96,3.48.38,5.62-1.46,5.42-4.71,8.2-10.16,8.73-1.06.1-2.07.7-3.14.8-3.03.29-3.74,1.9-3.61,4.8.26,5.41.04,10.84.09,16.25.03,3.84-1.2,8.64.64,11.23,1.68,2.37,6.7,2.5,10.31,3.33,2.37.54,3.32,1.95,4.43,3.98,2.55,4.65,2.25,8.69-1.01,12.74-.97,1.2-1.5,2.74-2.41,4-1.22,1.68-.93,2.79.57,4.25,6.39,6.2,12.66,12.53,18.9,18.88,1.18,1.2,2.05,1.54,3.58.54,2.61-1.7,5.5-2.98,8.07-4.74,1.95-1.34,3.48-.8,5.57-.32,5.71,1.3,7.92,4.99,8.63,10.27.19,1.41.96,2.74,1.12,4.16.26,2.22,1.47,2.61,3.45,2.56,4.33-.12,8.67-.04,13-.04h9.03c6.95,0,7.25.06,8.64-6.85,1.04-5.1,2.96-8.56,8.43-10.01,2.43-.65,4.14-.91,6.23.46,2.51,1.65,5.24,2.93,7.75,4.58,1.4.92,2.19.71,3.31-.44,4.28-4.4,8.72-8.65,12.98-13.07,2.58-2.66,7.07-4.85,7.23-8.09.15-3.14-3.03-6.55-5.02-9.67-1.25-1.94-1.01-3.45-.41-5.6,1.49-5.38,4.63-8.24,10.15-8.72,1.41-.12,2.77-.8,4.18-1.04,2.06-.34,2.59-1.41,2.54-3.47-.15-6.13-.03-12.28-.07-18.42ZM75.17,112.83c-21.02-.14-37.82-17.06-37.72-37.97.1-20.85,17.14-37.59,38.18-37.52,20.68.08,37.56,17.08,37.53,37.79-.03,20.87-17.12,37.84-37.99,37.7Z"/>
  </g>
</svg>