<?xml version="1.0" encoding="UTF-8"?>
<svg id="Layer_2" data-name="Layer 2" xmlns="http://www.w3.org/2000/svg" viewBox="0 0 157.29 125.84">
  <defs>
    <style>
      .cls-1 {
        fill: #b3b3b3;
        stroke-width: 0px;
      }
    </style>
  </defs>
  <g id="Layer_1-2" data-name="Layer 1">
    <path class="cls-1" d="M27.51,89.64c8.52-1.05,17.01-1.83,25.46-2.36,8.46-.53,17.01-.79,25.66-.79s17.2.26,25.66.79c8.45.53,16.94,1.31,25.46,2.36l-35.39-42.47-22.42,26.74-15.73-18.87-28.7,34.61ZM7.87,125.84c-2.1.05-4.13-.76-5.61-2.26C.77,122.11-.05,120.08,0,117.98V7.89C-.05,5.79.77,3.77,2.26,2.29,3.73.78,5.76-.04,7.87,0c2.39.33,4.74.96,6.98,1.86,3.6,1.24,8.42,2.59,14.45,4.03,6.03,1.44,13.14,2.79,21.33,4.03,9.28,1.32,18.64,1.95,28.02,1.87,9.37.08,18.74-.55,28.02-1.87,8.19-1.24,15.3-2.59,21.33-4.03,6.03-1.44,10.84-2.79,14.45-4.03,2.24-.9,4.58-1.53,6.98-1.86,2.1-.05,4.13.76,5.61,2.26,1.49,1.48,2.31,3.5,2.26,5.6v110.11c.05,2.1-.77,4.12-2.26,5.6-1.48,1.5-3.51,2.31-5.61,2.26-2.39-.33-4.74-.96-6.98-1.86-3.6-1.25-8.42-2.59-14.45-4.03s-13.14-2.78-21.33-4.03c-9.28-1.32-18.65-1.94-28.02-1.86-9.37-.08-18.74.55-28.02,1.86-8.19,1.25-15.3,2.59-21.33,4.03s-10.84,2.78-14.45,4.03c-2.24.91-4.58,1.54-6.98,1.87ZM15.76,107.36c10.21-3.01,20.63-5.28,31.16-6.78,10.52-1.5,21.13-2.26,31.75-2.26,10.63,0,21.24.75,31.76,2.26,10.54,1.5,20.95,3.77,31.16,6.78V18.65c-10.2,3.01-20.62,5.24-31.16,6.68-10.53,1.44-21.14,2.16-31.76,2.15-10.62,0-21.23-.72-31.75-2.15-10.54-1.44-20.96-3.67-31.16-6.68v88.71Z"/>
  </g>
</svg>