<?xml version="1.0" encoding="UTF-8"?>
<svg id="Layer_2" data-name="Layer 2" xmlns="http://www.w3.org/2000/svg" viewBox="0 0 157.97 126.39">
  <defs>
    <style>
      .cls-1 {
        fill: #4d4d4d;
        stroke-width: 0px;
      }
    </style>
  </defs>
  <g id="Layer_1-2" data-name="Layer 1">
    <path class="cls-1" d="M27.63,90.02c8.56-1.05,17.08-1.84,25.57-2.37,8.49-.53,17.08-.79,25.77-.79s17.28.26,25.77.79c8.49.53,17.01,1.32,25.57,2.37l-35.55-42.66-22.51,26.85-15.8-18.95-28.82,34.76ZM7.9,126.38c-2.11.05-4.15-.77-5.63-2.27C.77,122.63-.05,120.6,0,118.49V7.92C-.05,5.82.77,3.78,2.27,2.3,3.75.79,5.79-.04,7.9,0c2.4.33,4.76.96,7.01,1.87,3.62,1.25,8.46,2.6,14.51,4.05s13.2,2.8,21.42,4.05c9.32,1.33,18.72,1.96,28.14,1.88,9.42.08,18.82-.55,28.14-1.88,8.23-1.25,15.37-2.6,21.42-4.05s10.89-2.8,14.51-4.05c2.25-.91,4.6-1.54,7.01-1.87,2.11-.05,4.15.77,5.63,2.27,1.5,1.48,2.32,3.52,2.27,5.62v110.59c.05,2.11-.77,4.14-2.27,5.62-1.48,1.5-3.52,2.32-5.63,2.27-2.4-.33-4.76-.96-7.01-1.87-3.62-1.25-8.46-2.6-14.51-4.05s-13.2-2.79-21.42-4.05c-9.32-1.32-18.73-1.95-28.14-1.87-9.41-.08-18.82.55-28.14,1.87-8.23,1.25-15.37,2.6-21.42,4.05s-10.89,2.79-14.51,4.05c-2.25.91-4.6,1.54-7.01,1.88ZM15.82,107.82c10.25-3.03,20.71-5.3,31.3-6.81,10.56-1.51,21.22-2.27,31.89-2.27,10.67,0,21.33.76,31.9,2.27,10.58,1.51,21.04,3.79,31.3,6.81V18.73c-10.25,3.02-20.71,5.27-31.3,6.71-10.57,1.44-21.23,2.16-31.9,2.16-10.67,0-21.32-.72-31.89-2.16-10.59-1.45-21.05-3.69-31.3-6.71v89.09Z"/>
  </g>
</svg>